<svg id="_002-toilet" data-name="002-toilet" xmlns="http://www.w3.org/2000/svg" width="19.504" height="19.504" viewBox="0 0 19.504 19.504">
  <path id="Combined_Shape" data-name="Combined Shape" d="M19.5,19.5H0v-.645H1.554a1.553,1.553,0,0,1,1.493-1.29h.3v-2.9A4.2,4.2,0,0,1,.914,10.8V8.539h.609V7.249a.629.629,0,0,1,.61-.645H4.571a.629.629,0,0,1,.609.645v.645H4.571V7.249H3.352V8.539H8.837V10.8A4.194,4.194,0,0,1,6.4,14.665v2.9h.3A1.553,1.553,0,0,1,8.2,18.859h4.066l.478-1.8a4.238,4.238,0,0,1-2.076-3.686v-.323a.629.629,0,0,1-.609-.645v-.644a.629.629,0,0,1,.609-.645V7.895a.629.629,0,0,1-.609-.645V6.6a.629.629,0,0,1,.609-.645h6.671V3.792H18.42V5.959h.17A.629.629,0,0,1,19.2,6.6v.645a.629.629,0,0,1-.609.645v3.225a.629.629,0,0,1,.609.645v.644a.629.629,0,0,1-.609.645v.323a4.238,4.238,0,0,1-2.076,3.686l.478,1.8H19.5V19.5h0ZM12.9,18.859h3.461l-.408-1.535a3.691,3.691,0,0,1-2.645,0Zm-10.708,0H7.563a.921.921,0,0,0-.858-.645H3.048A.921.921,0,0,0,2.189,18.859Zm1.773-1.29H5.79v-2.7a3.63,3.63,0,0,1-1.828,0Zm7.314-4.192a3.458,3.458,0,0,0,3.352,3.547,3.458,3.458,0,0,0,3.352-3.547v-.323h-6.7ZM1.523,10.8a3.458,3.458,0,0,0,3.353,3.547A3.458,3.458,0,0,0,8.228,10.8v-.323h-6.7Zm9.142,1.612H18.59v-.644H10.666Zm.61-1.289h6.7V7.895h-6.7v.644h1.218v.645H11.276ZM1.523,9.829h6.7V9.184h-6.7Zm.61-1.29h.609V7.249H2.133Zm8.532-1.289H18.59V6.6H10.666ZM.975,5.959A.938.938,0,0,1,0,5.066V.894A.938.938,0,0,1,.975,0h7.8a.938.938,0,0,1,.975.894V5.066a.938.938,0,0,1-.975.894ZM.65.894V5.066a.313.313,0,0,0,.325.3h7.8a.313.313,0,0,0,.325-.3V.894A.313.313,0,0,0,8.777.6H.975A.313.313,0,0,0,.65.894Zm3.705.587.431-.445L8.442,4.811l-.431.445Zm-3.048,0,.432-.445L5.4,4.81l-.431.445Zm14.4,3.4V3.792h1.084V4.876Zm-4.875,0V3.792H9.752V2.709h2.167V4.876Zm3.792-2.709H13.544V1.083h2.166V2.167ZM13.544,1.083V0h1.083V1.083Z" transform="translate(0 0)" fill="#340cb9"/>
</svg>
