<svg id="_001-bed" data-name="001-bed" xmlns="http://www.w3.org/2000/svg" width="19.504" height="19.504" viewBox="0 0 19.504 19.504">
  <path id="Combined_Shape" data-name="Combined Shape" d="M17.229,19.5a.353.353,0,0,1-.326-.375V17.253H2.6v1.876a.353.353,0,0,1-.326.375H.975a.353.353,0,0,1-.325-.375V17.253H.325A.353.353,0,0,1,0,16.878V11.627a.352.352,0,0,1,.325-.374H.65V10.127a1.9,1.9,0,0,1,.976-1.716V2.625a.382.382,0,0,1,.2-.344,1.645,1.645,0,0,1-.2-.781A1.413,1.413,0,0,1,2.926,0a1.413,1.413,0,0,1,1.3,1.5,1.672,1.672,0,0,1-.18.751H15.458a1.675,1.675,0,0,1-.181-.751,1.413,1.413,0,0,1,1.3-1.5,1.412,1.412,0,0,1,1.3,1.5,1.645,1.645,0,0,1-.194.781.383.383,0,0,1,.194.344V8.411a1.9,1.9,0,0,1,.976,1.716v1.126h.325a.352.352,0,0,1,.326.374v5.251a.353.353,0,0,1-.326.375h-.325v1.876a.353.353,0,0,1-.325.375Zm.325-.751h.65v-1.5h-.65Zm-16.253,0h.65v-1.5H1.3ZM.65,16.5h18.2V12H.65ZM1.3,10.127v1.126H18.2V10.127A1.059,1.059,0,0,0,17.229,9H2.275A1.059,1.059,0,0,0,1.3,10.127ZM14.628,4.5a1.769,1.769,0,0,1,1.625,1.876v.75a2.055,2.055,0,0,1-.334,1.125h1.31V3H2.275V8.251H3.584A2.061,2.061,0,0,1,3.25,7.126v-.75A1.77,1.77,0,0,1,4.876,4.5h2.6A1.769,1.769,0,0,1,9.1,6.377v.75a2.051,2.051,0,0,1-.334,1.125h1.967A2.061,2.061,0,0,1,10.4,7.126v-.75A1.77,1.77,0,0,1,12.027,4.5ZM11.052,6.377v.75a1.059,1.059,0,0,0,.975,1.125h2.6A1.059,1.059,0,0,0,15.6,7.126v-.75a1.06,1.06,0,0,0-.975-1.126h-2.6A1.06,1.06,0,0,0,11.052,6.377Zm-7.151,0v.75a1.059,1.059,0,0,0,.976,1.125h2.6a1.059,1.059,0,0,0,.976-1.125v-.75a1.06,1.06,0,0,0-.976-1.126h-2.6A1.06,1.06,0,0,0,3.9,6.377ZM15.928,1.5a.657.657,0,1,0,1.3,0,.657.657,0,1,0-1.3,0ZM2.275,1.5a.707.707,0,0,0,.651.751.707.707,0,0,0,.65-.751.706.706,0,0,0-.65-.75A.706.706,0,0,0,2.275,1.5ZM4.125,15.711c-.184,0-.332-.243-.332-.542s.148-.542.332-.542H18.087c.184,0,.333.242.333.542s-.149.542-.333.542Zm-2.589,0a.551.551,0,0,1,0-1.084H3.341a.551.551,0,0,1,0,1.084Z" fill="#340cb9"/>
</svg>
