<svg xmlns="http://www.w3.org/2000/svg" width="16.038" height="21.286" viewBox="0 0 16.038 21.286">
  <path id="dental_icon" data-name="dental icon" d="M13.058,12.691c1.594,0,2.332,1.209,2.487,2.926a11.8,11.8,0,0,1-.054,1.7c-.179,2.3-.385,5.135,1.149,5.135,1.3,0,1.964-2.489,2.349-5.327.371-2.809-.023-4.207.172-5.455.369-2.363,2.432-4.482,1.795-7.5A3.478,3.478,0,0,0,18.771,1.39c-2.1-.764-3.457.709-5.712.709S9.447.625,7.346,1.39A3.48,3.48,0,0,0,5.16,4.178c-.636,3.013,1.427,5.132,1.8,7.5.193,1.247-.2,2.645.172,5.455.385,2.838,1.051,5.327,2.349,5.327,1.533,0,1.328-2.831,1.149-5.135a11.883,11.883,0,0,1-.054-1.7C10.727,13.9,11.476,12.691,13.058,12.691Z" transform="translate(-5.039 -1.17)" fill="#fff"/>
</svg>
