<svg xmlns="http://www.w3.org/2000/svg" width="19.504" height="19.428" viewBox="0 0 19.504 19.428">
  <path id="Combined_Shape" data-name="Combined Shape" d="M17.394,19.428A.418.418,0,0,1,16.986,19V7.459H2.518V19a.419.419,0,0,1-.409.426H.641A.419.419,0,0,1,.233,19V6.28A.382.382,0,0,1,0,5.926V4.968a.382.382,0,0,1,.207-.342L9.354.054A.505.505,0,0,1,9.8.05l9.49,4.573a.382.382,0,0,1,.211.345v.957a.382.382,0,0,1-.233.354V19a.418.418,0,0,1-.408.426Zm.147-12.26v11.68h1.175V6.306H17.541ZM.788,18.848H1.963V6.306H.788ZM2.518,6.878H16.986V6.306H2.518ZM.555,5.094v.631H18.949V5.1L9.582.583ZM13.678,19.428a.862.862,0,0,1-.842-.88v-.7H6.67v.7a.862.862,0,0,1-.842.88H4.992a.863.863,0,0,1-.843-.88v-.757a1.041,1.041,0,0,1-.683-.99V14.435a1.983,1.983,0,0,1,.584-1.407L3.9,12.823H3.143a.538.538,0,0,1-.524-.549v-.216a.537.537,0,0,1,.524-.548h.712a.537.537,0,0,1,.524.548v.216a.568.568,0,0,1-.037.2l.018.024.877-2.888a1.207,1.207,0,0,1,1.148-.877H13.12a1.206,1.206,0,0,1,1.148.877l.78,2.571v-.126a.537.537,0,0,1,.524-.548h.712a.537.537,0,0,1,.524.548v.216a.537.537,0,0,1-.524.549h-.752l-.122.162a1.973,1.973,0,0,1,.628,1.45V16.8a1.039,1.039,0,0,1-.682.99v.757a.863.863,0,0,1-.843.88Zm-.287-.88a.294.294,0,0,0,.287.3h.837a.294.294,0,0,0,.287-.3v-.7h-1.41Zm-8.687,0a.294.294,0,0,0,.287.3h.837a.294.294,0,0,0,.287-.3v-.7H4.7Zm7.218-2.5a.917.917,0,0,1,.9.935v.276h2.254a.456.456,0,0,0,.412-.462V14.435a1.384,1.384,0,0,0-.337-.91,2.7,2.7,0,0,1-2.5,1.728h-5.8a2.706,2.706,0,0,1-2.5-1.728,1.384,1.384,0,0,0-.336.91V16.8a.456.456,0,0,0,.413.462H6.689v-.276a.917.917,0,0,1,.9-.935Zm-4.679.935v.276h5.019v-.276a.348.348,0,0,0-.34-.355H7.584A.349.349,0,0,0,7.244,16.989Zm-2.03-3.9-.063.007-.019,0a.742.742,0,0,0-.076.014l-.015,0-.014,0-.052.014h0l-.01,0-.01,0-.061.02-.007,0-.007,0,0,0-.045.019a2.166,2.166,0,0,0,2.029,1.49h5.8a2.166,2.166,0,0,0,2.029-1.49l-.045-.019-.005,0-.014-.005c-.02-.007-.041-.015-.062-.02l-.009,0-.009,0H14.53l-.063-.016-.018,0a.675.675,0,0,0-.076-.014l-.018,0-.064-.007h-.023l-.08,0H5.318l-.08,0H5.214Zm.554-3.295-.836,2.752h.006l.024,0,.059-.011.028,0h.005l.073-.01h.012l.033,0h.007l.8-2.645a.431.431,0,0,1,.41-.314H13.12a.431.431,0,0,1,.41.313l.8,2.645h.059l.017,0,.017,0h.015l.015,0,.013,0,.026,0H14.5l.012,0,.033.007.012,0,.011,0h0l-.832-2.751a.65.65,0,0,0-.618-.472H6.386A.65.65,0,0,0,5.768,9.791ZM5.763,12.5h7.979l-.713-2.373H6.478Zm9.841-.257h.651v-.151H15.6Zm-12.429,0h.651v-.151H3.174Zm9.775,4.615a.486.486,0,0,1-.072-.416l.2-.709a.466.466,0,0,1,.321-.326l1.205-.33a.44.44,0,0,1,.116-.015.445.445,0,0,1,.341.162.489.489,0,0,1,.108.375l-.091.7a.464.464,0,0,1-.341.4l-1.311.338a.49.49,0,0,1-.11.014A.449.449,0,0,1,12.949,16.859Zm.641-.905-.132.474,1.073-.276.061-.471ZM6.085,17.035,4.774,16.7a.463.463,0,0,1-.34-.4l-.091-.7a.489.489,0,0,1,.108-.375.446.446,0,0,1,.341-.162.436.436,0,0,1,.116.015l1.205.33a.466.466,0,0,1,.321.326l.2.709a.486.486,0,0,1-.072.416.446.446,0,0,1-.361.19A.491.491,0,0,1,6.085,17.035Zm-1.111-.884,1.074.276-.132-.474-1-.274Z" fill="#340cb9"/>
</svg>
