<svg xmlns="http://www.w3.org/2000/svg" width="19.504" height="19.503" viewBox="0 0 19.504 19.503">
  <path id="Combined_Shape" data-name="Combined Shape" d="M.325,19.5A.325.325,0,0,1,0,19.178V12.027A.325.325,0,0,1,.325,11.7H1.3v-.976a.325.325,0,0,1,.325-.325H2.6v.65h-.65v.65h1.3V10.4H3.9v1.3H5.2v-.65h-.65V10.4h.976a.325.325,0,0,1,.325.325V11.7H13V4.225a.325.325,0,0,1,.325-.325h5.851a.326.326,0,0,1,.325.325V19.178a.326.326,0,0,1-.325.325Zm13.328-.65h5.2V9.1h-5.2Zm-3.251,0H13V14.3H10.4Zm-3.25,0h2.6V14.3h-2.6Zm-6.5,0H6.5V14.3H.65Zm6.5-5.2H13v-1.3H7.151Zm-6.5,0H6.5v-1.3H.65Zm13-5.2h5.2v-3.9h-5.2ZM1.625,18.2a.325.325,0,0,1-.325-.325v-2.6a.325.325,0,0,1,.325-.325h3.9a.325.325,0,0,1,.325.325v2.6a.325.325,0,0,1-.325.325Zm.325-.649H5.2V15.6H1.951Zm9.1-.325v-1.3h.65v1.3Zm-2.6,0v-1.3H9.1v1.3Zm.975-3.9v-.65h1.3v.65ZM5.2,13a.325.325,0,1,1,.325.325A.325.325,0,0,1,5.2,13ZM3.9,13a.325.325,0,1,1,.325.325A.325.325,0,0,1,3.9,13ZM2.6,13a.325.325,0,1,1,.325.325A.325.325,0,0,1,2.6,13ZM1.3,13a.325.325,0,1,1,.325.325A.325.325,0,0,1,1.3,13Zm13-1.3V10.4h.649v1.3ZM7.8,8.126A.325.325,0,0,1,7.476,7.8V7.476a1.3,1.3,0,0,1,.975-1.254V0H9.1V6.223a1.3,1.3,0,0,1,.976,1.254V7.8a.325.325,0,0,1-.325.325Zm.325-.65h1.3a.65.65,0,1,0-1.3,0ZM14.3,7.151v-1.3h.649v1.3ZM.325,6.176A.325.325,0,0,1,0,5.851V4.876a.326.326,0,0,1,.1-.23l1.3-1.3a.321.321,0,0,1,.23-.1h.325V.325A.325.325,0,0,1,2.275,0h2.6A.325.325,0,0,1,5.2.325V3.25h.325a.324.324,0,0,1,.23.1l1.3,1.3a.326.326,0,0,1,.1.23v.975a.326.326,0,0,1-.325.325ZM.65,5.011v.516H6.5V5.011L5.392,3.9H1.76ZM2.6,3.25h1.95V.65H2.6Zm7.475,2.276A.326.326,0,0,1,9.752,5.2V4.876a1.3,1.3,0,0,1,.975-1.254V0h.65V3.622a1.3,1.3,0,0,1,.976,1.254V5.2a.326.326,0,0,1-.325.325Zm.325-.65h1.3a.65.65,0,0,0-1.3,0Z" fill="#340cb9"/>
</svg>
